<?xml version="1.0" encoding="utf-8"?>
<!-- Generator: Adobe Illustrator 24.1.3, SVG Export Plug-In . SVG Version: 6.00 Build 0)  -->
<svg version="1.2" baseProfile="tiny" id="Capa_1" xmlns="http://www.w3.org/2000/svg" xmlns:xlink="http://www.w3.org/1999/xlink"
     x="0px" y="0px" viewBox="0 0 512 512" overflow="visible" xml:space="preserve">
<g>
	<path fill="#E92B5F" d="M68.2,197.9C33,211.2,1,233.9,0,266.1c0.4,17.8,1.7,35.6,3.9,53.3c2,17.2,17.5,29.6,34.8,27.6
		c0.4,0,0.8-0.1,1.2-0.2l98.6-15.6c12.4-2,22.4-11.2,25.5-23.3l12.8-51l0,0c49.1-9.4,99.6-10.1,148.9-2l9.2,1.5l13,51.3
		c3.1,12.2,13.1,21.4,25.5,23.3l98.6,15.6c17.1,2.7,33.2-9.1,35.8-26.2c0.1-0.4,0.1-0.8,0.2-1.2c2.3-17.7,3.6-35.5,3.9-53.3
		c-1-32.9-32.9-53.9-68.2-68.2C334.8,152.7,181.1,154.9,68.2,197.9z"/>
</g>
</svg>