<?xml version="1.0" encoding="utf-8"?>
<!-- Generator: Adobe Illustrator 24.1.3, SVG Export Plug-In . SVG Version: 6.00 Build 0)  -->
<svg version="1.2" baseProfile="tiny" id="Capa_1" xmlns="http://www.w3.org/2000/svg" xmlns:xlink="http://www.w3.org/1999/xlink"
     x="0px" y="0px" viewBox="0 0 512 512" overflow="visible" xml:space="preserve">
<g>
	<path fill="#E92B5F" d="M326,446.9c33.5,17,71.9,25.4,96.4,4.5c12.9-12.3,25.2-25.2,36.7-38.8c11.4-13.1,10-32.9-3-44.3
		c-0.3-0.3-0.6-0.5-1-0.8l-78-62.4c-9.8-7.8-23.4-9-34.4-3.1l-46.3,24.9l0,0c-40.1-30-74.5-66.8-101.8-108.7l-5.1-7.8l29.1-44.1
		c6.9-10.5,7-24.1,0.1-34.6l-54.9-83.4c-9.6-14.5-29.1-18.4-43.5-8.8c-0.3,0.2-0.7,0.5-1,0.7c-14.6,10.2-28.6,21.2-42,33
		c-23.6,22.9-17.7,60.6-4.5,96.4C113,280.3,218.1,392.5,326,446.9z"/>
</g>
</svg>